REM DIRINDEX 1\2,1\3\5,1\3\6,1\4\7,1\4\8
REM DIRNAME cjc139,folder01,folder02,folder03,folder04,folder05,folder06,folder07
TITLE ""
FILE "JE_18.mp3" MP3
  TRACK 01 AUDIO
    TITLE "0:"
    INDEX 01 00:00:00
  TRACK 02 AUDIO
    TITLE "7:cjc139_3794"
    INDEX 01 00:00:17
  TRACK 03 AUDIO
    TITLE "0:"
    INDEX 01 00:03:12
  TRACK 04 AUDIO
    TITLE "8:cjc139_3795"
    INDEX 01 00:05:73
  TRACK 05 AUDIO
    TITLE "0:"
    INDEX 01 00:08:24
  TRACK 06 AUDIO
    TITLE "7:cjc139_3796"
    INDEX 01 00:11:11
  TRACK 07 AUDIO
    TITLE "0:"
    INDEX 01 00:13:37
  TRACK 08 AUDIO
    TITLE "8:cjc139_3797"
    INDEX 01 00:16:20
  TRACK 09 AUDIO
    TITLE "0:"
    INDEX 01 00:18:17
  TRACK 10 AUDIO
    TITLE "7:cjc139_3798"
    INDEX 01 00:21:06
  TRACK 11 AUDIO
    TITLE "0:"
    INDEX 01 00:23:26
  TRACK 12 AUDIO
    TITLE "8:cjc139_3799"
    INDEX 01 00:26:13
  TRACK 13 AUDIO
    TITLE "0:"
    INDEX 01 00:28:13
  TRACK 14 AUDIO
    TITLE "7:cjc139_3800"
    INDEX 01 00:30:73
  TRACK 15 AUDIO
    TITLE "0:"
    INDEX 01 00:32:54
  TRACK 16 AUDIO
    TITLE "8:cjc139_3801"
    INDEX 01 00:35:41
  TRACK 17 AUDIO
    TITLE "0:"
    INDEX 01 00:37:40
  TRACK 18 AUDIO
    TITLE "7:cjc139_3802"
    INDEX 01 00:40:24
  TRACK 19 AUDIO
    TITLE "0:"
    INDEX 01 00:42:70
  TRACK 20 AUDIO
    TITLE "8:cjc139_3803"
    INDEX 01 00:45:55
  TRACK 21 AUDIO
    TITLE "0:"
    INDEX 01 00:48:61
  TRACK 22 AUDIO
    TITLE "7:cjc139_3804"
    INDEX 01 00:51:48
  TRACK 23 AUDIO
    TITLE "0:"
    INDEX 01 00:53:70
  TRACK 24 AUDIO
    TITLE "8:cjc139_3805"
    INDEX 01 00:56:55
  TRACK 25 AUDIO
    TITLE "0:"
    INDEX 01 00:59:18
  TRACK 26 AUDIO
    TITLE "7:cjc139_3806"
    INDEX 01 01:02:05
  TRACK 27 AUDIO
    TITLE "0:"
    INDEX 01 01:04:33
  TRACK 28 AUDIO
    TITLE "8:cjc139_3807"
    INDEX 01 01:07:19
  TRACK 29 AUDIO
    TITLE "0:"
    INDEX 01 01:09:34
  TRACK 30 AUDIO
    TITLE "7:cjc139_3808"
    INDEX 01 01:12:23
  TRACK 31 AUDIO
    TITLE "0:"
    INDEX 01 01:13:73
  TRACK 32 AUDIO
    TITLE "8:cjc139_3809"
    INDEX 01 01:16:61
  TRACK 33 AUDIO
    TITLE "0:"
    INDEX 01 01:19:03
  TRACK 34 AUDIO
    TITLE "7:cjc139_3810"
    INDEX 01 01:21:63
  TRACK 35 AUDIO
    TITLE "0:"
    INDEX 01 01:23:58
  TRACK 36 AUDIO
    TITLE "8:cjc139_3811"
    INDEX 01 01:26:42
  TRACK 37 AUDIO
    TITLE "0:"
    INDEX 01 01:28:63
  TRACK 38 AUDIO
    TITLE "7:cjc139_3812"
    INDEX 01 01:31:47
  TRACK 39 AUDIO
    TITLE "0:"
    INDEX 01 01:33:31
  TRACK 40 AUDIO
    TITLE "8:cjc139_3813"
    INDEX 01 01:36:15
  TRACK 41 AUDIO
    TITLE "0:"
    INDEX 01 01:38:61
  TRACK 42 AUDIO
    TITLE "7:cjc139_3814"
    INDEX 01 01:41:50
  TRACK 43 AUDIO
    TITLE "0:"
    INDEX 01 01:44:42
  TRACK 44 AUDIO
    TITLE "8:cjc139_3815"
    INDEX 01 01:47:25
  TRACK 45 AUDIO
    TITLE "0:"
    INDEX 01 01:49:69
  TRACK 46 AUDIO
    TITLE "7:cjc139_3816"
    INDEX 01 01:52:53
  TRACK 47 AUDIO
    TITLE "0:"
    INDEX 01 01:55:67
  TRACK 48 AUDIO
    TITLE "8:cjc139_3817"
    INDEX 01 01:58:52
  TRACK 49 AUDIO
    TITLE "0:"
    INDEX 01 02:02:03
  TRACK 50 AUDIO
    TITLE "7:cjc139_3818"
    INDEX 01 02:04:64
  TRACK 51 AUDIO
    TITLE "0:"
    INDEX 01 02:08:09
  TRACK 52 AUDIO
    TITLE "8:cjc139_3819"
    INDEX 01 02:10:67
  TRACK 53 AUDIO
    TITLE "0:"
    INDEX 01 02:13:61
  TRACK 54 AUDIO
    TITLE "7:cjc139_3820"
    INDEX 01 02:16:46
  TRACK 55 AUDIO
    TITLE "0:"
    INDEX 01 02:18:70
  TRACK 56 AUDIO
    TITLE "8:cjc139_3821"
    INDEX 01 02:21:55
  TRACK 57 AUDIO
    TITLE "0:"
    INDEX 01 02:24:04
  TRACK 58 AUDIO
    TITLE "7:cjc139_3822"
    INDEX 01 02:26:64
  TRACK 59 AUDIO
    TITLE "0:"
    INDEX 01 02:29:21
  TRACK 60 AUDIO
    TITLE "8:cjc139_3823"
    INDEX 01 02:32:08
  TRACK 61 AUDIO
    TITLE "0:"
    INDEX 01 02:34:28
  TRACK 62 AUDIO
    TITLE "7:cjc139_3824"
    INDEX 01 02:37:13
  TRACK 63 AUDIO
    TITLE "0:"
    INDEX 01 02:39:22
  TRACK 64 AUDIO
    TITLE "8:cjc139_3825"
    INDEX 01 02:42:04
  TRACK 65 AUDIO
    TITLE "0:"
    INDEX 01 02:44:25
  TRACK 66 AUDIO
    TITLE "7:cjc139_3826"
    INDEX 01 02:47:09
  TRACK 67 AUDIO
    TITLE "0:"
    INDEX 01 02:48:73
  TRACK 68 AUDIO
    TITLE "8:cjc139_3827"
    INDEX 01 02:51:58
  TRACK 69 AUDIO
    TITLE "0:"
    INDEX 01 02:53:69
  TRACK 70 AUDIO
    TITLE "7:cjc139_3828"
    INDEX 01 02:56:53
  TRACK 71 AUDIO
    TITLE "0:"
    INDEX 01 02:58:33
  TRACK 72 AUDIO
    TITLE "8:cjc139_3829"
    INDEX 01 03:01:19
  TRACK 73 AUDIO
    TITLE "0:"
    INDEX 01 03:03:30
  TRACK 74 AUDIO
    TITLE "7:cjc139_3830"
    INDEX 01 03:06:17
  TRACK 75 AUDIO
    TITLE "0:"
    INDEX 01 03:08:47
  TRACK 76 AUDIO
    TITLE "8:cjc139_3831"
    INDEX 01 03:11:31
  TRACK 77 AUDIO
    TITLE "0:"
    INDEX 01 03:14:16
  TRACK 78 AUDIO
    TITLE "7:cjc139_3832"
    INDEX 01 03:17:03
  TRACK 79 AUDIO
    TITLE "0:"
    INDEX 01 03:18:59
  TRACK 80 AUDIO
    TITLE "8:cjc139_3833"
    INDEX 01 03:21:42
  TRACK 81 AUDIO
    TITLE "0:"
    INDEX 01 03:23:40
  TRACK 82 AUDIO
    TITLE "7:cjc139_3834"
    INDEX 01 03:26:27
  TRACK 83 AUDIO
    TITLE "0:"
    INDEX 01 03:29:20
  TRACK 84 AUDIO
    TITLE "8:cjc139_3835"
    INDEX 01 03:32:06
  TRACK 85 AUDIO
    TITLE "0:"
    INDEX 01 03:34:68
  TRACK 86 AUDIO
    TITLE "7:cjc139_3836"
    INDEX 01 03:37:52
  TRACK 87 AUDIO
    TITLE "0:"
    INDEX 01 03:39:32
  TRACK 88 AUDIO
    TITLE "8:cjc139_3837"
    INDEX 01 03:42:16
  TRACK 89 AUDIO
    TITLE "0:"
    INDEX 01 03:44:19
  TRACK 90 AUDIO
    TITLE "7:cjc139_3838"
    INDEX 01 03:47:08
  TRACK 91 AUDIO
    TITLE "0:"
    INDEX 01 03:48:56
  TRACK 92 AUDIO
    TITLE "8:cjc139_3839"
    INDEX 01 03:51:43
  TRACK 93 AUDIO
    TITLE "0:"
    INDEX 01 03:53:53
  TRACK 94 AUDIO
    TITLE "7:cjc139_3840"
    INDEX 01 03:56:40
  TRACK 95 AUDIO
    TITLE "0:"
    INDEX 01 03:58:25
  TRACK 96 AUDIO
    TITLE "8:cjc139_3841"
    INDEX 01 04:01:10
  TRACK 97 AUDIO
    TITLE "0:"
    INDEX 01 04:03:71
